PathFileType	4	(X/Y/Z)	/Users/itak/Documents/Research/Walk-IL/dataset/trc/00525_00183.trc
DataRate	CameraRate	NumFrames	NumMarkers	Units	OrigDataRate	OrigDataStartFrame	OrigNumFrames
100.000000	100.000000	4	53	mm	100.000000	419	559
Frame#	Time	RPSI			LPSI			L3			STRN			T10			C7			CLAV			RBAK			LBAK			LSHO			LUPA			LAEL			LAOL			LWTS			LWPS			LFRA			LIFD			LHPS			LHTS			RSHO			RUPA			RAEL			RAOL			RWTS			RWPS			RFRA			RIFD			RHTS			RHPS			RBHD			LFHD			RFHD			LBHD			LHIP			RHIP			RASI			LASI			LKNE			LTHI			LANK			LTIP			LTOE			LMT1			LMT5			LHEE			RKNE			RTHI			RANK			RTIP			RTOE			RMT1			RMT5			RHEE			
		X1	Y1	Z1	X2	Y2	Z2	X3	Y3	Z3	X4	Y4	Z4	X5	Y5	Z5	X6	Y6	Z6	X7	Y7	Z7	X8	Y8	Z8	X9	Y9	Z9	X10	Y10	Z10	X11	Y11	Z11	X12	Y12	Z12	X13	Y13	Z13	X14	Y14	Z14	X15	Y15	Z15	X16	Y16	Z16	X17	Y17	Z17	X18	Y18	Z18	X19	Y19	Z19	X20	Y20	Z20	X21	Y21	Z21	X22	Y22	Z22	X23	Y23	Z23	X24	Y24	Z24	X25	Y25	Z25	X26	Y26	Z26	X27	Y27	Z27	X28	Y28	Z28	X29	Y29	Z29	X30	Y30	Z30	X31	Y31	Z31	X32	Y32	Z32	X33	Y33	Z33	X34	Y34	Z34	X35	Y35	Z35	X36	Y36	Z36	X37	Y37	Z37	X38	Y38	Z38	X39	Y39	Z39	X40	Y40	Z40	X41	Y41	Z41	X42	Y42	Z42	X43	Y43	Z43	X44	Y44	Z44	X45	Y45	Z45	X46	Y46	Z46	X47	Y47	Z47	X48	Y48	Z48	X49	Y49	Z49	X50	Y50	Z50	X51	Y51	Z51	X52	Y52	Z52	X53	Y53	Z53	

420	4.19	584.2217407226562	957.3024291992188	436.3447875976562	653.5851440429688	955.5228881835938	334.5404663085938	623.1376342773438	1029.656494140625	380.8743591308594	810.8616943359375	1193.20703125	483.6853942871094	608.4235229492188	1131.890502929688	374.3215026855469	640.7711791992188	1363.19580078125	393.4799194335938	778.5796508789062	1287.624267578125	465.38134765625	559.3787231445312	1241.414428710938	448.0993347167969	660.2020874023438	1309.3818359375	305.1689453125	777.3807983398438	1356.840087890625	284.9310913085938	797.8524780273438	1231.514038085938	224.8890838623047	830.272216796875	1023.038024902344	206.2013244628906	735.6974487304688	1009.219665527344	232.2573089599609	900.919189453125	840.568603515625	282.6875305175781	856.093994140625	803.9922485351562	208.1643371582031	850.0552368164062	941.81884765625	213.4696960449219	910.8465576171875	684.285400390625	291.8716430664062	878.4801025390625	751.3743286132812	222.8040008544922	923.1017456054688	764.3082275390625	268.1117248535156	620.5469970703125	1358.626098632812	549.4038696289062	579.3132934570312	1292.805297851562	594.2294921875	571.7228393554688	1027.979858398438	652.5181274414062	541.783447265625	1006.407531738281	596.8756103515625	695.5152587890625	836.8302612304688	674.7791137695312	611.6282348632812	809.853271484375	696.8236083984375	577.3388061523438	974.0469360351562	664.6715698242188	710.2689208984375	679.0445556640625	684.5165405273438	709.9717407226562	746.1887817382812	707.3732299804688	640.1361083984375	736.8270874023438	707.9580688476562	626.0194702148438	1512.108276367188	476.8232727050781	801.582763671875	1590.111938476562	420.85205078125	733.3148193359375	1583.46142578125	527.668212890625	701.2872924804688	1515.70556640625	334.5598754882812	820.08740234375	882.0775146484375	289.7549743652344	601.9210815429688	861.4823608398438	603.3719482421875	721.892822265625	909.04052734375	600.9764404296875	852.6832275390625	919.6190185546875	396.6826782226562	872.607421875	473.5205078125	397.0808410644531	866.6347045898438	626.878173828125	352.9588317871094	823.2616577148438	39.00136184692383	405.1178588867188	868.904296875	317.0243835449219	397.4495544433594	963.9243774414062	30.46394538879395	558.6154174804688	881.0935668945312	40.95491409301758	546.1033935546875	920.6524658203125	32.11365509033203	453.1985168457031	753.968994140625	41.39189910888672	438.4682922363281	672.7652587890625	479.9504699707031	610.7239379882812	638.0912475585938	733.9155883789062	623.6934204101562	431.7870483398438	158.0535583496094	452.4179077148438	623.8245239257812	358.5059204101562	578.7659301757812	566.7180786132812	48.94807434082031	546.4512329101562	557.251953125	73.71584320068359	477.1466369628906	477.4034118652344	96.04147338867188	531.7911376953125	433.2682495117188	173.0103454589844	383.7582092285156	
421	4.2	589.2052612304688	958.2962646484375	437.9728088378906	658.8726806640625	956.4904174804688	336.335205078125	628.6827392578125	1030.821044921875	382.5535278320312	816.2874755859375	1194.191284179688	485.6924133300781	614.071044921875	1132.852416992188	375.4415283203125	646.6098022460938	1364.207153320312	394.8551635742188	784.0869140625	1288.630004882812	467.2982788085938	564.8943481445312	1242.479614257812	449.0605163574219	666.4088745117188	1310.4140625	306.6109924316406	783.6271362304688	1357.980224609375	286.8915405273438	804.7001342773438	1232.615356445312	227.1156158447266	838.3219604492188	1024.276611328125	208.9182739257812	743.8889770507812	1009.938903808594	234.8896331787109	911.0942993164062	843.269287109375	286.02099609375	866.3789672851562	805.9126586914062	211.8599548339844	858.8773803710938	943.5895385742188	216.6643524169922	923.2886962890625	687.1863403320312	295.3813171386719	889.6439819335938	753.7328491210938	226.32373046875	934.3341674804688	767.3587036132812	271.3662414550781	625.70361328125	1359.587524414062	550.6852416992188	584.190673828125	1293.829345703125	595.2713623046875	575.6619873046875	1029.109985351562	653.785400390625	545.8870849609375	1007.486083984375	598.0441284179688	699.6329956054688	838.2357177734375	676.8193969726562	615.8040161132812	811.0809326171875	698.691650390625	581.222900390625	975.182373046875	666.0524291992188	714.8384399414062	680.565673828125	686.4981689453125	714.3273315429688	747.6804809570312	709.5789184570312	644.5499267578125	738.078857421875	709.9580688476562	631.385986328125	1513.057495117188	478.1817932128906	807.1162109375	1591.094604492188	422.9524536132812	738.4303588867188	1584.33935546875	529.545166015625	707.11376953125	1516.754272460938	336.2567443847656	827.41015625	883.034423828125	292.5718994140625	606.7974853515625	862.7467041015625	605.2122192382812	726.7090454101562	910.2161865234375	602.5797729492188	858.0322265625	920.439208984375	398.6080627441406	874.3604125976562	473.3349609375	397.5513305664062	869.7874145507812	626.9118041992188	354.1411437988281	823.2142333984375	39.08211135864258	405.3171081542969	869.8245239257812	316.8722229003906	397.6626281738281	963.9331665039062	30.37364768981934	558.716796875	881.1046142578125	40.83121871948242	546.1806640625	920.6647338867188	32.10333251953125	453.2381591796875	753.9105224609375	41.37398910522461	438.6409606933594	680.029541015625	481.701904296875	614.4224243164062	643.2906494140625	735.4436645507812	626.0569458007812	446.8721008300781	151.1372222900391	461.1889953613281	633.3984375	358.6797180175781	584.331298828125	583.6841430664062	48.07307052612305	559.329833984375	574.2252197265625	70.73999786376953	489.2605590820312	493.456787109375	92.55487060546875	542.5604858398438	448.5353698730469	164.3155364990234	392.130859375	
422	4.21	594.0582885742188	959.1905517578125	439.5296020507812	664.0406494140625	957.3286743164062	338.0269775390625	634.0892333984375	1031.880249023438	384.1527099609375	821.6231689453125	1195.064575195312	487.7017211914062	619.6192016601562	1133.761962890625	376.5710754394531	652.3710327148438	1365.1416015625	396.2470703125	789.5180053710938	1289.527099609375	469.2147216796875	570.3177490234375	1243.471313476562	450.0547790527344	672.5211791992188	1311.350463867188	308.0666198730469	789.7864379882812	1358.997680664062	288.8489685058594	811.4244384765625	1233.586791992188	229.3352661132812	846.20556640625	1025.392578125	211.5532684326172	751.9036254882812	1010.554382324219	237.4620056152344	921.14208984375	845.9888916015625	289.3626098632812	876.5106811523438	807.7332153320312	215.6465911865234	867.50732421875	945.2686767578125	219.8327178955078	935.7420043945312	690.16015625	298.9931945800781	900.7069702148438	756.0335693359375	229.9744415283203	945.4789428710938	770.4571533203125	274.6787109375	630.8240356445312	1360.480590820312	551.9866333007812	589.0445556640625	1294.78857421875	596.3574829101562	579.5817260742188	1030.164794921875	655.08349609375	549.97705078125	1008.513916015625	599.2398071289062	703.6058959960938	839.5098876953125	678.9348754882812	619.7814331054688	812.2296142578125	700.5382080078125	585.0608520507812	976.2559814453125	667.4530639648438	719.0811767578125	681.9221801757812	688.6337890625	718.4268798828125	749.0330810546875	711.9024047851562	648.694580078125	739.2545166015625	712.0028076171875	636.6264038085938	1513.86279296875	479.5604248046875	812.489501953125	1592.04248046875	425.0771484375	743.3778076171875	1585.135131835938	531.44580078125	712.8295288085938	1517.697265625	337.9624328613281	834.9081420898438	883.9260864257812	295.4696960449219	611.5133056640625	863.9530639648438	606.9826049804688	731.3765869140625	911.3233032226562	604.165771484375	863.2265625	921.15283203125	400.5137939453125	876.03662109375	473.1173095703125	397.9960021972656	872.83984375	626.9083862304688	355.3036499023438	823.1719970703125	39.17645645141602	405.5406188964844	870.6893310546875	316.7073669433594	397.8789672851562	963.9585571289062	30.25813484191895	558.8418579101562	881.1124267578125	40.67169952392578	546.2969970703125	920.6783447265625	32.09550476074219	453.298828125	753.8344116210938	41.32209777832031	438.8634033203125	686.9241943359375	483.2781372070312	617.9605102539062	648.2505493164062	736.8756713867188	628.290771484375	462.1941833496094	143.7098083496094	470.3225708007812	642.80712890625	358.5330810546875	589.7972412109375	600.9841918945312	47.17922210693359	572.4295654296875	591.52490234375	67.70131683349609	501.65625	509.8294067382812	88.77013397216797	553.6051635742188	464.0450439453125	155.0632019042969	400.9071655273438	
423	4.22	598.801025390625	959.9931640625	441.0140686035156	669.0992431640625	958.0419921875	339.6236877441406	639.3636474609375	1032.8251953125	385.6560363769531	826.8634643554688	1195.8251953125	489.7158508300781	625.07177734375	1134.629028320312	377.7140502929688	658.0571899414062	1366.0009765625	397.6595458984375	794.8742065429688	1290.314331054688	471.1390075683594	575.6414184570312	1244.397216796875	451.0834655761719	678.5391845703125	1312.198120117188	309.5378723144531	795.864990234375	1359.894165039062	290.8117370605469	818.039794921875	1234.43505859375	231.5578002929688	853.9405517578125	1026.39111328125	214.1324768066406	759.7465209960938	1011.071105957031	239.9520874023438	931.0264892578125	848.721435546875	292.720458984375	886.4911499023438	809.4536743164062	219.5126953125	875.9521484375	946.864013671875	222.9776763916016	948.1668090820312	693.2108764648438	302.7532958984375	911.661376953125	758.2711181640625	233.7593078613281	956.4993896484375	773.594482421875	278.0783996582031	635.905029296875	1361.304809570312	553.3125	593.8722534179688	1295.683349609375	597.4905395507812	583.489501953125	1031.1416015625	656.4130249023438	554.0717163085938	1009.488586425781	600.4564819335938	707.4496459960938	840.6434326171875	681.1007080078125	623.5773315429688	813.3029174804688	702.3726806640625	588.8655395507812	977.2645263671875	668.8720703125	722.9942626953125	683.1032104492188	690.9178466796875	722.2762451171875	750.2351684570312	714.31982421875	652.577880859375	740.3600463867188	714.0817260742188	641.7328491210938	1514.51806640625	480.9535522460938	817.6973876953125	1592.961303710938	427.2263793945312	748.1500244140625	1585.862426757812	533.3636474609375	718.4429931640625	1518.522705078125	339.6744384765625	842.21923828125	884.7136840820312	298.3059692382812	616.0775756835938	865.1057739257812	608.681640625	735.9063110351562	912.3759765625	605.7487182617188	868.265869140625	921.7606201171875	402.4097900390625	877.6807250976562	472.8709411621094	398.4483642578125	875.8137817382812	626.8733520507812	356.4779968261719	823.140380859375	39.2783317565918	405.7734680175781	871.545166015625	316.535400390625	398.1335144042969	964.0021362304688	30.12320709228516	558.9885864257812	881.1156616210938	40.47732543945312	546.4549560546875	920.6909790039062	32.09005355834961	453.38134765625	753.7408447265625	41.23217010498047	439.1295166015625	693.4188232421875	484.6953430175781	621.2892456054688	652.985107421875	738.2146606445312	630.4099731445312	477.7115783691406	135.9224395751953	479.817626953125	651.9715576171875	358.1400451660156	595.1561279296875	618.5374755859375	46.36904144287109	585.6885986328125	609.0658569335938	64.71241760253906	514.271484375	526.4491577148438	84.81283569335938	564.904541015625	479.7447814941406	145.4105834960938	410.0909118652344	
